<svg width="304" height="305" viewBox="0 0 304 305" fill="none" xmlns="http://www.w3.org/2000/svg">
<mask id="path-1-inside-1_204_213" fill="white">
<path fill-rule="evenodd" clip-rule="evenodd" d="M101.113 74.0117C100.163 70.8674 98.4668 67.8977 96.02 65.3795C87.8544 56.9758 74.4224 56.7828 66.0188 64.9483C57.6152 73.1139 57.4221 86.5459 65.5877 94.9495C68.164 97.601 71.2647 99.4351 74.5662 100.447C71.43 122.422 71.5336 153.224 74.9948 156.786C77.9748 159.853 83.6686 157.682 88.8006 155.725C92.4917 154.318 95.8922 153.021 97.7832 153.864C99.3778 154.575 99.9592 167.707 100.567 181.427C101.238 196.596 101.941 212.483 104.081 213.095C108.963 214.492 114.221 213.041 118.712 211.801C122.351 210.796 125.486 209.93 127.51 210.832C128.295 211.182 128.078 216.177 127.78 223.028C127.123 238.137 126.074 262.273 134.523 265.525C139.422 267.41 160.068 257.271 177.718 248.604C190.968 242.097 202.529 236.42 204.468 237.284C206.306 238.103 207.75 240.476 209.36 243.12C211.708 246.978 214.409 251.414 219.197 252.444C225.676 253.836 255.375 224.979 252.811 219.782C251.473 217.068 247.93 215.447 244.164 213.725C240.719 212.148 237.087 210.487 234.786 207.825C233.569 206.417 239.198 194.897 245.796 181.394C255.517 161.501 267.342 137.302 262.482 134.784C255.464 131.149 240.944 131.77 228.931 132.285C218.856 132.717 210.544 133.073 209.897 130.779C209.303 128.671 210.808 125.436 212.593 121.599C215.065 116.284 218.076 109.813 216.787 103.582C216.521 102.296 206.647 102.205 194.919 102.097C177.467 101.936 155.909 101.738 155.784 97.5065C155.685 94.1698 157.162 91.3997 158.555 88.7877C160.116 85.8612 161.57 83.133 160.585 80.0283C159.242 75.7994 124.627 72.1928 101.113 74.0117Z"/>
</mask>
<path fill-rule="evenodd" clip-rule="evenodd" d="M101.113 74.0117C100.163 70.8674 98.4668 67.8977 96.02 65.3795C87.8544 56.9758 74.4224 56.7828 66.0188 64.9483C57.6152 73.1139 57.4221 86.5459 65.5877 94.9495C68.164 97.601 71.2647 99.4351 74.5662 100.447C71.43 122.422 71.5336 153.224 74.9948 156.786C77.9748 159.853 83.6686 157.682 88.8006 155.725C92.4917 154.318 95.8922 153.021 97.7832 153.864C99.3778 154.575 99.9592 167.707 100.567 181.427C101.238 196.596 101.941 212.483 104.081 213.095C108.963 214.492 114.221 213.041 118.712 211.801C122.351 210.796 125.486 209.93 127.51 210.832C128.295 211.182 128.078 216.177 127.78 223.028C127.123 238.137 126.074 262.273 134.523 265.525C139.422 267.41 160.068 257.271 177.718 248.604C190.968 242.097 202.529 236.42 204.468 237.284C206.306 238.103 207.75 240.476 209.36 243.12C211.708 246.978 214.409 251.414 219.197 252.444C225.676 253.836 255.375 224.979 252.811 219.782C251.473 217.068 247.93 215.447 244.164 213.725C240.719 212.148 237.087 210.487 234.786 207.825C233.569 206.417 239.198 194.897 245.796 181.394C255.517 161.501 267.342 137.302 262.482 134.784C255.464 131.149 240.944 131.77 228.931 132.285C218.856 132.717 210.544 133.073 209.897 130.779C209.303 128.671 210.808 125.436 212.593 121.599C215.065 116.284 218.076 109.813 216.787 103.582C216.521 102.296 206.647 102.205 194.919 102.097C177.467 101.936 155.909 101.738 155.784 97.5065C155.685 94.1698 157.162 91.3997 158.555 88.7877C160.116 85.8612 161.57 83.133 160.585 80.0283C159.242 75.7994 124.627 72.1928 101.113 74.0117Z" fill="#894F0A"/>
<path d="M101.113 74.0117L100.156 74.3008L100.388 75.0707L101.19 75.0087L101.113 74.0117ZM74.5662 100.447L75.5562 100.588L75.677 99.7418L74.8593 99.4911L74.5662 100.447ZM88.8006 155.725L88.4443 154.791L88.8006 155.725ZM97.7832 153.864L97.3761 154.777L97.7832 153.864ZM100.567 181.427L101.566 181.383L100.567 181.427ZM104.081 213.095L104.356 212.134L104.081 213.095ZM118.712 211.801L118.978 212.765L118.978 212.765L118.712 211.801ZM127.51 210.832L127.103 211.746L127.103 211.746L127.51 210.832ZM127.78 223.028L126.781 222.984L127.78 223.028ZM134.523 265.525L134.882 264.591L134.882 264.591L134.523 265.525ZM177.718 248.604L178.158 249.502L177.718 248.604ZM204.468 237.284L204.06 238.198L204.06 238.198L204.468 237.284ZM209.36 243.12L210.214 242.6L210.214 242.6L209.36 243.12ZM219.197 252.444L219.408 251.466L219.197 252.444ZM252.811 219.782L251.915 220.224L252.811 219.782ZM244.164 213.725L244.58 212.815L244.164 213.725ZM234.786 207.825L234.03 208.478L234.786 207.825ZM245.796 181.394L246.695 181.833L245.796 181.394ZM262.482 134.784L262.022 135.672L262.482 134.784ZM228.931 132.285L228.973 133.284L228.931 132.285ZM209.897 130.779L210.86 130.508L209.897 130.779ZM212.593 121.599L213.499 122.02L212.593 121.599ZM216.787 103.582L217.766 103.38L216.787 103.582ZM194.919 102.097L194.909 103.097L194.919 102.097ZM155.784 97.5065L154.785 97.5361L155.784 97.5065ZM158.555 88.7877L157.673 88.3172L158.555 88.7877ZM160.585 80.0283L159.631 80.3309L159.631 80.3309L160.585 80.0283ZM95.3028 66.0763C97.6356 68.4771 99.251 71.3061 100.156 74.3008L102.07 73.7225C101.075 70.4287 99.2981 67.3182 96.7372 64.6826L95.3028 66.0763ZM66.7157 65.6655C74.7232 57.8849 87.5221 58.0688 95.3028 66.0763L96.7372 64.6826C88.1867 55.8828 74.1217 55.6807 65.3219 64.2311L66.7157 65.6655ZM66.3049 94.2526C58.5242 86.2451 58.7081 73.4462 66.7157 65.6655L65.3219 64.2311C56.5222 72.7816 56.3201 86.8466 64.8705 95.6464L66.3049 94.2526ZM74.8593 99.4911C71.7146 98.5271 68.761 96.7804 66.3049 94.2526L64.8705 95.6464C67.5671 98.4216 70.8147 100.343 74.2731 101.403L74.8593 99.4911ZM73.5763 100.306C72.0002 111.349 71.2397 124.593 71.3065 135.528C71.3399 140.994 71.5801 145.906 72.0337 149.69C72.2603 151.579 72.5429 153.212 72.888 154.502C73.2192 155.74 73.6503 156.837 74.2776 157.483L75.712 156.089C75.474 155.844 75.1448 155.199 74.82 153.985C74.5092 152.823 74.2404 151.294 74.0195 149.452C73.5783 145.771 73.3396 140.942 73.3064 135.515C73.2402 124.665 73.996 111.52 75.5562 100.588L73.5763 100.306ZM74.2776 157.483C76.1144 159.373 78.7083 159.548 81.2542 159.126C83.8104 158.702 86.6167 157.628 89.1568 156.66L88.4443 154.791C85.8525 155.779 83.2459 156.769 80.9272 157.153C78.5982 157.539 76.8553 157.266 75.712 156.089L74.2776 157.483ZM89.1568 156.66C91.0187 155.95 92.7333 155.297 94.214 154.92C95.7427 154.53 96.7669 154.506 97.3761 154.777L98.1903 152.951C96.9085 152.379 95.287 152.582 93.7198 152.982C92.1048 153.394 90.2736 154.093 88.4443 154.791L89.1568 156.66ZM97.3761 154.777C97.2298 154.712 97.1954 154.63 97.2375 154.693C97.2719 154.745 97.3289 154.852 97.399 155.04C97.5389 155.414 97.6823 155.973 97.8224 156.725C98.1009 158.218 98.3388 160.314 98.5485 162.849C98.9671 167.913 99.2635 174.604 99.5675 181.471L101.566 181.383C101.262 174.53 100.964 167.795 100.542 162.685C100.331 160.133 100.086 157.955 99.7885 156.358C99.6403 155.564 99.4719 154.873 99.2724 154.34C99.1728 154.073 99.0533 153.812 98.9037 153.587C98.7618 153.373 98.536 153.105 98.1903 152.951L97.3761 154.777ZM99.5675 181.471C99.9029 189.048 100.247 196.837 100.777 202.808C101.042 205.789 101.355 208.354 101.745 210.226C101.938 211.156 102.16 211.963 102.425 212.577C102.557 212.884 102.716 213.181 102.915 213.43C103.11 213.674 103.4 213.94 103.806 214.057L104.356 212.134C104.495 212.174 104.528 212.244 104.477 212.181C104.431 212.122 104.355 212.001 104.261 211.785C104.076 211.354 103.886 210.7 103.703 209.818C103.338 208.065 103.032 205.595 102.769 202.631C102.244 196.714 101.902 188.975 101.566 181.383L99.5675 181.471ZM103.806 214.057C109.005 215.545 114.546 213.988 118.978 212.765L118.446 210.837C113.895 212.093 108.92 213.44 104.356 212.134L103.806 214.057ZM118.978 212.765C120.814 212.258 122.447 211.809 123.869 211.59C125.306 211.369 126.36 211.415 127.103 211.746L127.917 209.919C126.637 209.348 125.11 209.376 123.565 209.613C122.003 209.853 120.248 210.339 118.446 210.837L118.978 212.765ZM127.103 211.746C126.812 211.616 126.772 211.392 126.823 211.526C126.853 211.609 126.896 211.776 126.935 212.058C127.011 212.614 127.048 213.431 127.051 214.495C127.058 216.615 126.931 219.549 126.781 222.984L128.779 223.071C128.928 219.656 129.058 216.667 129.051 214.489C129.048 213.405 129.011 212.48 128.916 211.787C128.869 211.444 128.802 211.11 128.696 210.825C128.609 210.593 128.404 210.136 127.917 209.919L127.103 211.746ZM126.781 222.984C126.453 230.524 126.022 240.403 126.74 248.808C127.099 253.007 127.749 256.903 128.873 259.98C129.986 263.029 131.644 265.488 134.163 266.458L134.882 264.591C133.177 263.935 131.797 262.158 130.752 259.294C129.717 256.46 129.086 252.767 128.733 248.638C128.028 240.385 128.45 230.64 128.779 223.071L126.781 222.984ZM134.163 266.458C134.997 266.779 136.045 266.808 137.167 266.689C138.313 266.567 139.65 266.276 141.129 265.857C144.089 265.019 147.725 263.639 151.729 261.942C159.74 258.547 169.341 253.831 178.158 249.502L177.277 247.707C168.445 252.044 158.898 256.731 150.949 260.101C146.972 261.786 143.425 263.129 140.584 263.933C139.163 264.335 137.946 264.594 136.955 264.7C135.942 264.808 135.273 264.742 134.882 264.591L134.163 266.458ZM178.158 249.502C184.79 246.245 190.973 243.209 195.74 241.094C198.126 240.036 200.13 239.22 201.645 238.724C202.404 238.475 203.011 238.316 203.465 238.243C203.974 238.161 204.108 238.219 204.06 238.198L204.875 236.371C204.343 236.134 203.691 236.18 203.146 236.269C202.544 236.366 201.826 236.56 201.022 236.823C199.41 237.352 197.332 238.2 194.929 239.266C190.118 241.4 183.896 244.456 177.277 247.707L178.158 249.502ZM204.06 238.198C204.754 238.507 205.451 239.149 206.208 240.129C206.959 241.102 207.693 242.305 208.505 243.64L210.214 242.6C209.417 241.291 208.623 239.985 207.791 238.907C206.963 237.835 206.02 236.881 204.875 236.371L204.06 238.198ZM208.505 243.64C209.671 245.554 210.981 247.713 212.624 249.516C214.28 251.333 216.325 252.849 218.987 253.421L219.408 251.466C217.281 251.009 215.581 249.792 214.103 248.169C212.611 246.533 211.397 244.544 210.214 242.6L208.505 243.64ZM218.987 253.421C219.593 253.551 220.251 253.491 220.902 253.336C221.562 253.18 222.278 252.91 223.03 252.559C224.533 251.858 226.269 250.787 228.122 249.474C231.831 246.845 236.111 243.17 240.092 239.301C244.073 235.433 247.788 231.341 250.356 227.868C251.637 226.136 252.659 224.523 253.28 223.146C253.591 222.458 253.818 221.792 253.915 221.176C254.011 220.567 253.994 219.918 253.708 219.339L251.915 220.224C251.95 220.295 252 220.481 251.94 220.865C251.88 221.242 251.726 221.728 251.457 222.323C250.92 223.514 249.992 224.996 248.748 226.679C246.266 230.035 242.632 234.045 238.699 237.867C234.766 241.688 230.566 245.29 226.965 247.843C225.162 249.121 223.535 250.117 222.184 250.747C221.509 251.062 220.925 251.275 220.44 251.39C219.945 251.508 219.612 251.51 219.408 251.466L218.987 253.421ZM253.708 219.339C252.92 217.742 251.521 216.537 249.931 215.535C248.34 214.533 246.448 213.669 244.58 212.815L243.748 214.634C245.647 215.502 247.409 216.31 248.865 217.228C250.322 218.145 251.364 219.107 251.915 220.224L253.708 219.339ZM244.58 212.815C241.082 211.215 237.674 209.636 235.543 207.171L234.03 208.478C236.501 211.338 240.356 213.082 243.748 214.634L244.58 212.815ZM235.543 207.171C235.637 207.28 235.635 207.36 235.626 207.3C235.619 207.247 235.614 207.134 235.634 206.944C235.674 206.562 235.798 206.015 236.021 205.295C236.463 203.862 237.24 201.911 238.276 199.547C240.346 194.826 243.392 188.592 246.695 181.833L244.898 180.955C241.602 187.699 238.535 193.977 236.445 198.744C235.401 201.123 234.587 203.159 234.11 204.705C233.873 205.473 233.705 206.163 233.645 206.733C233.615 207.019 233.607 207.311 233.647 207.588C233.686 207.858 233.783 208.193 234.03 208.478L235.543 207.171ZM246.695 181.833C251.55 171.897 256.955 160.839 260.535 151.947C262.322 147.509 263.677 143.555 264.273 140.525C264.57 139.017 264.694 137.664 264.55 136.565C264.407 135.469 263.965 134.426 262.942 133.896L262.022 135.672C262.213 135.771 262.464 136.036 262.567 136.823C262.67 137.607 262.591 138.713 262.311 140.139C261.753 142.976 260.456 146.787 258.679 151.2C255.132 160.011 249.763 170.998 244.898 180.955L246.695 181.833ZM262.942 133.896C259.219 131.968 253.637 131.214 247.619 130.979C241.562 130.742 234.886 131.029 228.888 131.286L228.973 133.284C234.989 133.026 241.58 132.745 247.541 132.977C253.54 133.212 258.727 133.965 262.022 135.672L262.942 133.896ZM228.888 131.286C223.834 131.502 219.287 131.696 215.921 131.555C214.232 131.484 212.909 131.33 211.993 131.078C211.535 130.953 211.232 130.816 211.048 130.692C210.96 130.632 210.912 130.583 210.887 130.553C210.865 130.525 210.861 130.511 210.86 130.508L208.935 131.051C209.098 131.629 209.487 132.05 209.928 132.348C210.361 132.641 210.893 132.85 211.463 133.007C212.602 133.32 214.107 133.48 215.837 133.553C219.307 133.699 223.953 133.499 228.973 133.284L228.888 131.286ZM210.86 130.508C210.65 129.763 210.786 128.677 211.3 127.158C211.804 125.668 212.6 123.955 213.499 122.02L211.686 121.177C210.801 123.08 209.952 124.902 209.405 126.517C208.869 128.101 208.55 129.687 208.935 131.051L210.86 130.508ZM213.499 122.02C214.731 119.374 216.135 116.36 217.06 113.216C217.986 110.067 218.456 106.714 217.766 103.38L215.808 103.785C216.407 106.681 216.016 109.679 215.141 112.652C214.265 115.629 212.927 118.509 211.686 121.177L213.499 122.02ZM217.766 103.38C217.686 102.989 217.444 102.727 217.249 102.572C217.052 102.416 216.827 102.305 216.62 102.224C216.203 102.059 215.668 101.936 215.072 101.836C213.866 101.635 212.192 101.498 210.201 101.399C206.208 101.201 200.784 101.151 194.928 101.097L194.909 103.097C200.782 103.151 206.159 103.201 210.102 103.396C212.078 103.495 213.656 103.628 214.743 103.809C215.293 103.901 215.664 103.996 215.885 104.084C215.996 104.127 216.021 104.151 216.004 104.138C215.989 104.125 215.856 104.015 215.808 103.785L217.766 103.38ZM194.928 101.097C186.191 101.017 176.477 100.927 168.933 100.331C165.153 100.033 161.975 99.6119 159.755 99.0201C158.638 98.7224 157.835 98.3994 157.329 98.0722C156.812 97.7385 156.785 97.5264 156.784 97.477L154.785 97.5361C154.814 98.5446 155.488 99.2642 156.243 99.752C157.008 100.246 158.045 100.634 159.24 100.953C161.642 101.593 164.969 102.025 168.775 102.325C176.404 102.927 186.195 103.017 194.909 103.097L194.928 101.097ZM156.784 97.477C156.694 94.445 158.028 91.9024 159.438 89.2582L157.673 88.3172C156.297 90.8971 154.677 93.8946 154.785 97.5361L156.784 97.477ZM159.438 89.2582C160.954 86.4141 162.672 83.2981 161.538 79.7257L159.631 80.3309C160.469 82.9679 159.277 85.3083 157.673 88.3172L159.438 89.2582ZM161.538 79.7257C161.366 79.1856 160.974 78.7697 160.567 78.4536C160.147 78.1281 159.616 77.8355 159.015 77.5677C157.812 77.0313 156.19 76.5337 154.264 76.0755C150.402 75.1569 145.166 74.3609 139.265 73.7573C127.459 72.5498 112.865 72.0996 101.036 73.0146L101.19 75.0087C112.874 74.1049 127.345 74.5486 139.061 75.7469C144.92 76.3462 150.059 77.1311 153.801 78.0212C155.676 78.4674 157.162 78.9312 158.201 79.3943C158.721 79.6263 159.095 79.843 159.341 80.034C159.599 80.2345 159.635 80.3424 159.631 80.3309L161.538 79.7257Z" fill="#583C05" mask="url(#path-1-inside-1_204_213)"/>
<path d="M150.853 92.7177C148.769 87.68 93.979 77.6202 85.5653 84.3505C78.7115 89.833 82.9589 143.385 87.6655 148.229C92.3721 153.073 102.224 145.854 106.13 147.945C109.031 149.498 113.396 196.21 116.856 197.557C124.359 200.478 132.003 195.788 135.908 197.879C138.084 199.043 136.257 238.74 146.797 243.801C154.158 247.336 197.759 224.888 201.665 226.979C205.57 229.07 208.398 238.713 215.196 240.905C220.654 242.665 242.371 221.563 239.776 217.021C237.181 212.48 228.316 210.499 223.835 205.437C221.034 202.273 246.872 151.843 239.767 147.579C228.532 140.839 197.792 143.634 196.154 139.34C194.517 135.045 202.101 126.564 199.272 117.476C198.428 114.765 149.377 112.609 148.543 106.734C147.708 100.858 152.937 97.7554 150.853 92.7177Z" fill="#6FCF97" stroke="#27AE60"/>
<path d="M191.695 123.525C178.021 134.412 146.281 151.501 110.66 147.096M225.427 174.698C211.754 185.585 176.348 203.838 140.727 199.433" stroke="#FFF9EA" stroke-width="3" stroke-linecap="round" stroke-linejoin="round"/>
<line x1="123.445" y1="100.187" x2="123.443" y2="100.296" stroke="#F2C94C" stroke-width="8" stroke-linecap="round" stroke-linejoin="round"/>
<line x1="116.609" y1="124.419" x2="116.607" y2="124.528" stroke="#9B51E0" stroke-width="8" stroke-linecap="round" stroke-linejoin="round"/>
<line x1="139.266" y1="127.989" x2="139.264" y2="128.098" stroke="#2F80ED" stroke-width="8" stroke-linecap="round" stroke-linejoin="round"/>
<line x1="97.4747" y1="101.436" x2="97.4731" y2="101.545" stroke="#EB5757" stroke-width="8" stroke-linecap="round" stroke-linejoin="round"/>
<line x1="163.661" y1="123.473" x2="163.659" y2="123.582" stroke="#EB5757" stroke-width="8" stroke-linecap="round" stroke-linejoin="round"/>
<line x1="151.47" y1="181.691" x2="151.469" y2="181.8" stroke="#F2C94C" stroke-width="8" stroke-linecap="round" stroke-linejoin="round"/>
<line x1="206.281" y1="205.187" x2="206.28" y2="205.296" stroke="#F2C94C" stroke-width="8" stroke-linecap="round" stroke-linejoin="round"/>
<line x1="97.8078" y1="134.692" x2="97.8063" y2="134.801" stroke="#F2C94C" stroke-width="8" stroke-linecap="round" stroke-linejoin="round"/>
<line x1="161.503" y1="160.749" x2="161.502" y2="160.858" stroke="#2F80ED" stroke-width="8" stroke-linecap="round" stroke-linejoin="round"/>
<line x1="216.64" y1="161.541" x2="216.639" y2="161.65" stroke="#2F80ED" stroke-width="8" stroke-linecap="round" stroke-linejoin="round"/>
<line x1="183.997" y1="175.67" x2="183.995" y2="175.779" stroke="#EB5757" stroke-width="8" stroke-linecap="round" stroke-linejoin="round"/>
<line x1="134.734" y1="161.175" x2="134.732" y2="161.284" stroke="#EB5757" stroke-width="8" stroke-linecap="round" stroke-linejoin="round"/>
<line x1="122.303" y1="179.649" x2="122.302" y2="179.759" stroke="#9B51E0" stroke-width="8" stroke-linecap="round" stroke-linejoin="round"/>
<line x1="179.349" y1="216.965" x2="179.347" y2="217.074" stroke="#2F80ED" stroke-width="8" stroke-linecap="round" stroke-linejoin="round"/>
<line x1="155.822" y1="217.438" x2="155.821" y2="217.547" stroke="#EB5757" stroke-width="8" stroke-linecap="round" stroke-linejoin="round"/>
<line x1="189.235" y1="149.793" x2="189.233" y2="149.902" stroke="#9B51E0" stroke-width="8" stroke-linecap="round" stroke-linejoin="round"/>
<circle cx="79.9929" cy="80.1529" r="13.2619" transform="rotate(-44.1767 79.9929 80.1529)" fill="white" stroke="#FFF9EA"/>
<line x1="79.303" y1="67.9231" x2="79.3014" y2="68.0324" stroke="#2F80ED" stroke-width="8" stroke-linecap="round" stroke-linejoin="round"/>
</svg>
