<svg width="287" height="313" viewBox="0 0 287 313" fill="none" xmlns="http://www.w3.org/2000/svg">
<path fill-rule="evenodd" clip-rule="evenodd" d="M184.841 121.078C180.797 131.659 173.541 139.978 164.813 145.171C181.085 143.324 216.086 142.327 214.16 168.309C212.344 192.796 190.97 193.095 173.944 193.333C165.318 193.453 157.808 193.558 154.525 196.786C147.015 204.17 144.744 222.375 153.19 232.165C163.747 244.403 171.903 254.699 168.458 269.788C163.935 289.593 146.636 294.261 131.647 288.531C124.963 285.977 119.562 277.533 113.914 268.7C107.721 259.018 101.231 248.869 92.4252 245.504L92.4135 245.535C83.5745 242.156 71.9382 245.367 60.8364 248.43C50.7095 251.224 41.0272 253.896 34.3184 251.332C19.2712 245.581 9.48712 230.433 19.4189 212.45C26.9861 198.749 39.9973 196.462 56.1077 194.323C68.9961 192.611 79.5348 177.349 78.8878 166.731C78.6049 162.089 73.0658 156.962 66.7032 151.074C54.1461 139.452 38.3812 124.862 53.4816 105.166C68.886 85.0724 93.027 106.736 104.565 119.395C102.444 110.48 102.936 100.636 106.559 91.1575C115.536 67.6685 140.338 55.3248 161.955 63.587C183.572 71.8491 193.819 97.5886 184.841 121.078Z" fill="#D67E36"/>
<path d="M164.813 145.171L164.557 144.742L164.869 145.668L164.813 145.171ZM214.16 168.309L213.661 168.272L214.16 168.309ZM173.944 193.333L173.951 193.832L173.944 193.333ZM154.525 196.786L154.875 197.143L154.525 196.786ZM153.19 232.165L153.569 231.839L153.19 232.165ZM168.458 269.788L167.97 269.677L168.458 269.788ZM113.914 268.7L113.493 268.97L113.914 268.7ZM92.4252 245.504L92.6037 245.037L92.1367 244.858L91.9582 245.325L92.4252 245.504ZM92.4135 245.535L92.235 246.002L92.702 246.18L92.8805 245.713L92.4135 245.535ZM60.8364 248.43L60.9694 248.912L60.8364 248.43ZM19.4189 212.45L19.8566 212.692L19.4189 212.45ZM56.1077 194.323L56.0419 193.827L56.1077 194.323ZM78.8878 166.731L79.3868 166.701L78.8878 166.731ZM66.7032 151.074L66.3636 151.441L66.7032 151.074ZM53.4816 105.166L53.8784 105.47L53.4816 105.166ZM104.565 119.395L104.196 119.732L105.5 121.162L105.052 119.279L104.565 119.395ZM165.068 145.601C173.894 140.35 181.223 131.942 185.308 121.256L184.374 120.899C180.37 131.375 173.189 139.606 164.557 144.742L165.068 145.601ZM164.869 145.668C172.993 144.746 185.734 144.045 196.184 146.788C201.406 148.159 206.007 150.377 209.183 153.812C212.344 157.232 214.134 161.9 213.661 168.272L214.658 168.346C215.149 161.727 213.286 156.777 209.917 153.133C206.564 149.506 201.76 147.218 196.438 145.821C185.8 143.028 172.905 143.75 164.756 144.674L164.869 145.668ZM213.661 168.272C213.213 174.32 211.56 178.836 209.1 182.222C206.64 185.607 203.348 187.897 199.565 189.452C191.972 192.574 182.475 192.713 173.937 192.833L173.951 193.832C182.439 193.714 192.142 193.585 199.946 190.377C203.862 188.766 207.318 186.375 209.909 182.81C212.499 179.245 214.199 174.541 214.658 168.346L213.661 168.272ZM173.937 192.833C169.633 192.893 165.567 192.949 162.165 193.398C158.781 193.846 155.939 194.694 154.174 196.43L154.875 197.143C156.393 195.65 158.948 194.832 162.296 194.39C165.627 193.95 169.629 193.893 173.951 193.832L173.937 192.833ZM154.174 196.43C150.305 200.234 147.831 206.763 147.375 213.54C146.919 220.322 148.477 227.466 152.812 232.492L153.569 231.839C149.458 227.073 147.928 220.22 148.373 213.607C148.818 206.988 151.234 200.722 154.875 197.143L154.174 196.43ZM152.812 232.492C163.388 244.753 171.353 254.863 167.97 269.677L168.945 269.899C172.454 254.534 164.106 244.054 153.569 231.839L152.812 232.492ZM167.97 269.677C165.741 279.44 160.382 285.419 153.779 288.276C147.158 291.141 139.224 290.892 131.825 288.064L131.468 288.999C139.059 291.9 147.269 292.182 154.176 289.194C161.1 286.198 166.652 279.941 168.945 269.899L167.97 269.677ZM131.825 288.064C128.606 286.834 125.652 284.165 122.779 280.654C119.91 277.146 117.163 272.854 114.335 268.431L113.493 268.97C116.313 273.38 119.091 277.725 122.005 281.287C124.915 284.844 128.004 287.675 131.468 288.999L131.825 288.064ZM114.335 268.431C111.243 263.596 108.054 258.609 104.532 254.412C101.011 250.216 97.1212 246.764 92.6037 245.037L92.2467 245.971C96.5346 247.61 100.293 250.915 103.766 255.055C107.239 259.194 110.392 264.123 113.493 268.97L114.335 268.431ZM92.8805 245.713L92.8922 245.682L91.9582 245.325L91.9464 245.356L92.8805 245.713ZM60.9694 248.912C66.5272 247.379 72.1796 245.82 77.5435 245.062C82.9086 244.304 87.9297 244.356 92.235 246.002L92.592 245.068C88.0583 243.335 82.8417 243.303 77.4035 244.072C71.9641 244.84 66.2474 246.418 60.7034 247.948L60.9694 248.912ZM34.1399 251.799C37.6159 253.127 41.8175 253.086 46.3717 252.385C50.9312 251.683 55.9132 250.307 60.9694 248.912L60.7034 247.948C55.6327 249.347 50.7101 250.705 46.2195 251.396C41.7236 252.088 37.7297 252.1 34.4969 250.865L34.1399 251.799ZM18.9813 212.208C13.947 221.323 13.8887 229.773 17.0467 236.686C20.1971 243.582 26.5194 248.886 34.1399 251.799L34.4969 250.865C27.0702 248.026 20.9768 242.882 17.9563 236.27C14.9435 229.675 14.959 221.56 19.8566 212.692L18.9813 212.208ZM56.0419 193.827C39.9601 195.962 26.6844 198.261 18.9813 212.208L19.8566 212.692C27.2877 199.237 40.0344 196.961 56.1735 194.818L56.0419 193.827ZM78.3887 166.761C78.7026 171.912 76.2955 178.265 72.1788 183.56C68.0654 188.851 62.3154 192.994 56.0419 193.827L56.1735 194.818C62.7884 193.94 68.752 189.597 72.9683 184.174C77.1813 178.755 79.72 172.168 79.3868 166.701L78.3887 166.761ZM66.3636 151.441C69.5516 154.391 72.5027 157.124 74.6949 159.694C76.8981 162.278 78.2578 164.613 78.3887 166.761L79.3868 166.701C79.2349 164.207 77.6836 161.658 75.4558 159.045C73.2172 156.42 70.2174 153.645 67.0428 150.707L66.3636 151.441ZM53.0848 104.861C49.2651 109.844 47.3745 114.534 46.9138 118.962C46.4531 123.391 47.4269 127.517 49.2699 131.364C52.9424 139.029 60.1032 145.647 66.3636 151.441L67.0428 150.707C60.7461 144.879 53.7459 138.392 50.1717 130.932C48.3914 127.216 47.4705 123.275 47.9084 119.066C48.3464 114.856 50.1478 110.336 53.8784 105.47L53.0848 104.861ZM104.935 119.058C99.1565 112.719 90.183 104.077 80.6885 99.5471C75.9371 97.28 71.0145 96.0226 66.2754 96.6361C61.5185 97.252 57.007 99.7452 53.0848 104.861L53.8784 105.47C57.6583 100.539 61.9411 98.2056 66.4038 97.6279C70.8841 97.0478 75.6063 98.2301 80.2579 100.45C89.5696 104.893 98.4357 113.412 104.196 119.732L104.935 119.058ZM106.092 90.979C102.433 100.551 101.934 110.498 104.079 119.511L105.052 119.279C102.953 110.462 103.439 100.72 107.026 91.3361L106.092 90.979ZM162.134 63.1199C140.223 54.7454 115.154 67.2694 106.092 90.979L107.026 91.3361C115.919 68.0677 140.454 55.9041 161.777 64.054L162.134 63.1199ZM185.308 121.256C194.37 97.5464 184.045 71.4944 162.134 63.1199L161.777 64.054C183.1 72.2039 193.267 97.6308 184.374 120.899L185.308 121.256Z" fill="#815500"/>
<path d="M103.451 151.647L116.606 132.594L102.829 117.93C90.5074 132.956 98.1095 146.668 103.451 151.647Z" fill="#C4C4C4"/>
<circle cx="134.764" cy="94.3081" r="5.48636" transform="rotate(20.9173 134.764 94.3081)" fill="white"/>
<circle cx="161.412" cy="104.493" r="5.48636" transform="rotate(20.9173 161.412 104.493)" fill="white"/>
<circle cx="118.632" cy="178.006" r="2.74318" transform="rotate(20.9173 118.632 178.006)" fill="#E21E12"/>
<circle cx="113.539" cy="191.33" r="2.74318" transform="rotate(20.9173 113.539 191.33)" fill="#105305"/>
<circle cx="108.446" cy="204.655" r="2.74318" transform="rotate(20.9173 108.446 204.655)" fill="#E21E12"/>
<circle cx="103.354" cy="217.979" r="2.74318" transform="rotate(20.9173 103.354 217.979)" fill="#105305"/>
<path d="M165.397 144.781C175.175 142.644 158.65 219.38 135.705 185.072C112.76 150.763 80.8222 149.636 102.787 117.513C113.113 124.88 122.43 154.17 165.397 144.781Z" fill="#E21E12"/>
<path d="M102.598 117.294C102.662 117.367 102.724 117.44 102.787 117.513M102.787 117.513C80.8222 149.636 112.76 150.763 135.705 185.072C158.65 219.38 175.175 142.644 165.397 144.781C122.43 154.17 113.113 124.88 102.787 117.513Z" stroke="#815500"/>
<path d="M120.688 106.548C122.219 111.761 124.826 123.401 138.656 128.687C154.543 134.759 163.596 125.416 164.761 123.394" stroke="white" stroke-width="2"/>
<path d="M101.476 149.13L114.4 130.576L102.597 118.429C91.2528 133.358 97.4763 145.252 101.476 149.13Z" fill="#105305" stroke="#815500"/>
<path d="M113.987 160.96L125.801 140.807L132.268 143.866L138.613 145.704L125.67 171.886L113.987 160.96Z" fill="#105305" stroke="#815500"/>
<path d="M154.658 190.013L151.063 146.938L166.226 145.685C171.961 158.45 161.344 180.235 154.658 190.013Z" fill="#105305" stroke="#815500"/>
<path d="M187.578 109.796C171.976 73.201 138.125 66.5214 121.045 70.2698C133.123 59.1395 170.415 30.9923 194.247 40.1009C207.324 43.6073 226.836 55.8372 232.564 73.5412C238.293 91.2453 266.294 89.4054 263.156 91.8527C248.805 135.546 203.405 117.469 199.151 87.2011C196.529 95.5809 191.02 104.339 187.578 109.796Z" fill="#E21E12"/>
<path d="M277.528 96.0129C274.708 103.391 266.196 107.057 258.473 104.105C250.749 101.153 246.852 92.7447 249.672 85.3663C252.492 77.9878 261.004 74.3224 268.728 77.2743C276.451 80.2262 280.348 88.6344 277.528 96.0129Z" fill="#EFEFEF" stroke="#E21E12" stroke-width="2"/>
<g filter="url(#filter0_i_204_253)">
<path d="M198.955 87.7134C179.358 59.0787 152.8 54.8018 142.717 55.0593L130.916 62.8831L125.174 67.1492L118.845 72.9528C157.658 68.5227 181.759 95.8244 187.699 111.016L198.955 87.7134Z" fill="#EFEFEF"/>
</g>
<path d="M198.955 87.7134C179.358 59.0787 152.8 54.8018 142.717 55.0593L130.916 62.8831L125.174 67.1492L118.845 72.9528C157.658 68.5227 181.759 95.8244 187.699 111.016L198.955 87.7134Z" stroke="#E21E12"/>
<path d="M43.8309 196.991C49.7845 199.267 59.3368 203.012 56.0259 212.222C55.1948 214.534 54.9801 217.047 54.2132 219.382C53.4362 221.747 53.3061 225.298 54.1049 227.521C54.7271 229.253 57.7017 230.941 59.2326 231.631C60.2252 232.078 61.1759 233.219 61.9842 233.967C62.6267 234.561 63.3095 235.321 63.758 236.108C65.537 239.228 67.4875 242.667 65.9933 246.576" stroke="#105305" stroke-linecap="round" stroke-linejoin="round"/>
<path d="M112.116 264.205C113.442 260.736 115.305 258.048 118.087 255.919C119.61 254.754 122.05 254.697 123.698 254.552C125.807 254.366 128.159 254.985 130.106 255.58C132.809 256.407 135.44 257.934 138.414 257.447C140.641 257.082 142.956 256.53 145.013 255.292C148.768 253.034 150.877 248.444 154.032 245.314C155.108 244.247 156.376 242.713 157.777 242.851C159.299 243.001 160.876 242.902 162.334 243.459" stroke="#105305" stroke-linecap="round" stroke-linejoin="round"/>
<defs>
<filter id="filter0_i_204_253" x="117.373" y="54.5488" width="82.1587" height="61.7172" filterUnits="userSpaceOnUse" color-interpolation-filters="sRGB">
<feFlood flood-opacity="0" result="BackgroundImageFix"/>
<feBlend mode="normal" in="SourceGraphic" in2="BackgroundImageFix" result="shape"/>
<feColorMatrix in="SourceAlpha" type="matrix" values="0 0 0 0 0 0 0 0 0 0 0 0 0 0 0 0 0 0 127 0" result="hardAlpha"/>
<feOffset dy="4"/>
<feGaussianBlur stdDeviation="2"/>
<feComposite in2="hardAlpha" operator="arithmetic" k2="-1" k3="1"/>
<feColorMatrix type="matrix" values="0 0 0 0 0 0 0 0 0 0 0 0 0 0 0 0 0 0 0.25 0"/>
<feBlend mode="normal" in2="shape" result="effect1_innerShadow_204_253"/>
</filter>
</defs>
</svg>
